<svg xmlns="http://www.w3.org/2000/svg" xmlns:xlink="http://www.w3.org/1999/xlink" width="935" zoomAndPan="magnify" viewBox="0 0 701.25 191.999996" height="256" preserveAspectRatio="xMidYMid meet" version="1.2"><defs><clipPath id="2fa418f7c6"><path d="M 1 16.097656 L 689 16.097656 L 689 191.894531 L 1 191.894531 Z M 1 16.097656 "/></clipPath></defs><g id="a12b245d3e"><g clip-rule="nonzero" clip-path="url(#2fa418f7c6)"><path style=" stroke:none;fill-rule:nonzero;fill:#db1100;fill-opacity:1;" d="M 75.160156 16.097656 C 68.144531 16.53125 61.800781 20.246094 57.992188 26.226562 L 34.597656 62.945312 C 27.339844 74.34375 23.492188 87.546875 23.492188 101.042969 C 23.492188 109.648438 25.105469 118 28.113281 125.984375 C 16.34375 126.152344 5.925781 133.5625 2.078125 144.570312 C 0.960938 147.808594 1.453125 151.328125 3.496094 154.183594 L 3.515625 154.203125 C 2.230469 157.425781 1.496094 160.882812 1.496094 164.398438 C 1.496094 179.554688 13.828125 191.871094 28.992188 191.871094 C 42.546875 191.871094 53.761719 182.019531 56.015625 169.097656 C 57.839844 169.59375 59.753906 169.894531 61.707031 169.894531 L 595.59375 169.894531 C 598.148438 182.425781 609.253906 191.871094 622.53125 191.871094 C 637.074219 191.871094 648.886719 180.496094 649.851562 166.203125 L 677.800781 155.75 C 684.332031 153.238281 688.519531 147.1875 688.519531 140.277344 L 688.519531 125.140625 L 688.496094 125.132812 C 688.496094 125.132812 688.046875 116.015625 679.269531 114.949219 L 679.273438 114.949219 L 133.476562 114.949219 L 133.476562 16.097656 Z M 99.289062 26.945312 L 99.671875 66.535156 C 99.703125 69.558594 87.011719 70.996094 83.984375 70.996094 L 42.71875 70.996094 C 43.128906 70.289062 43.449219 69.535156 43.878906 68.847656 L 67.273438 32.128906 C 69.292969 28.953125 72.769531 27.042969 76.550781 27.042969 Z M 85.730469 86.75 L 92.972656 108.367188 L 115.769531 108.570312 L 97.445312 122.136719 L 104.296875 143.878906 L 85.730469 130.644531 L 67.171875 143.878906 L 74.019531 122.136719 L 55.699219 108.570312 L 78.492188 108.367188 Z M 39.988281 103.960938 C 43.019531 103.960938 45.488281 106.429688 45.488281 109.457031 C 45.488281 112.484375 43.019531 114.949219 39.988281 114.949219 C 38.316406 114.949219 36.726562 114.113281 35.671875 112.804688 C 34.816406 111.21875 34.371094 109.550781 34.878906 107.699219 C 35.492188 105.472656 37.648438 103.960938 39.988281 103.960938 Z M 39.882812 125.917969 C 39.925781 125.917969 39.945312 125.941406 39.988281 125.941406 L 40.003906 125.941406 C 40.085938 126.203125 40.175781 126.492188 40.273438 126.796875 Z M 622.53125 147.917969 C 631.640625 147.917969 639.027344 155.300781 639.027344 164.398438 C 639.027344 173.5 631.640625 180.882812 622.53125 180.882812 C 613.421875 180.882812 606.03125 173.5 606.03125 164.398438 C 606.03125 155.300781 613.421875 147.917969 622.53125 147.917969 Z M 13.480469 158.90625 L 42.71875 158.90625 C 43.472656 160.195312 44.308594 161.398438 45.277344 162.492188 C 45.359375 163.109375 45.488281 163.734375 45.488281 164.398438 C 45.488281 173.5 38.097656 180.882812 28.992188 180.882812 C 19.882812 180.882812 12.496094 173.5 12.496094 164.398438 C 12.496094 162.511719 12.859375 160.667969 13.480469 158.90625 Z M 13.480469 158.90625 "/></g><g style="fill:#db1100;fill-opacity:1;"><g transform="translate(141.11984, 101.796758)"><path style="stroke:none" d="M 15.03125 0.171875 C 11.757812 0.171875 10.210938 -0.726562 10.390625 -2.53125 L 15.203125 -48.046875 L 5.828125 -48.046875 C 5.097656 -48.046875 4.5625 -48.269531 4.21875 -48.71875 C 3.882812 -49.164062 3.71875 -49.898438 3.71875 -50.921875 C 3.71875 -51.484375 3.742188 -51.929688 3.796875 -52.265625 L 4.140625 -54.890625 C 4.304688 -56.347656 4.613281 -57.414062 5.0625 -58.09375 C 5.507812 -58.769531 6.160156 -59.109375 7.015625 -59.109375 L 39.09375 -59.109375 C 39.882812 -59.109375 40.445312 -58.878906 40.78125 -58.421875 C 41.125 -57.972656 41.296875 -57.242188 41.296875 -56.234375 C 41.296875 -55.671875 41.265625 -55.222656 41.203125 -54.890625 L 40.875 -52.265625 C 40.695312 -50.804688 40.382812 -49.738281 39.9375 -49.0625 C 39.488281 -48.382812 38.8125 -48.046875 37.90625 -48.046875 L 28.453125 -48.046875 L 23.640625 -2.53125 C 23.472656 -0.726562 21.753906 0.171875 18.484375 0.171875 Z M 15.03125 0.171875 "/></g></g><g style="fill:#db1100;fill-opacity:1;"><g transform="translate(177.929038, 101.796758)"><path style="stroke:none" d="M 7.4375 0.171875 C 4.164062 0.171875 2.613281 -0.726562 2.78125 -2.53125 L 8.53125 -56.578125 C 8.695312 -58.378906 10.410156 -59.28125 13.671875 -59.28125 L 17.21875 -59.28125 C 20.425781 -59.28125 21.945312 -58.378906 21.78125 -56.578125 L 19.59375 -35.71875 L 34.03125 -35.71875 L 36.21875 -56.578125 C 36.394531 -58.378906 38.113281 -59.28125 41.375 -59.28125 L 44.84375 -59.28125 C 48.101562 -59.28125 49.648438 -58.378906 49.484375 -56.578125 L 43.734375 -2.53125 C 43.566406 -0.726562 41.851562 0.171875 38.59375 0.171875 L 35.125 0.171875 C 31.863281 0.171875 30.316406 -0.726562 30.484375 -2.53125 L 32.84375 -24.578125 L 18.40625 -24.578125 L 16.046875 -2.53125 C 15.878906 -0.726562 14.191406 0.171875 10.984375 0.171875 Z M 7.4375 0.171875 "/></g></g><g style="fill:#db1100;fill-opacity:1;"><g transform="translate(227.14876, 101.796758)"><path style="stroke:none" d="M 7.765625 0.171875 C 4.390625 0.171875 2.785156 -0.726562 2.953125 -2.53125 L 8.609375 -55.734375 C 8.722656 -56.910156 9.078125 -57.765625 9.671875 -58.296875 C 10.265625 -58.835938 11.148438 -59.109375 12.328125 -59.109375 L 22.71875 -59.109375 C 35.601562 -59.109375 42.046875 -53.476562 42.046875 -42.21875 C 42.046875 -38.675781 41.144531 -35.582031 39.34375 -32.9375 C 37.539062 -30.289062 35.066406 -28.429688 31.921875 -27.359375 L 31.921875 -27.015625 C 33.328125 -26.335938 34.453125 -25.3125 35.296875 -23.9375 C 36.140625 -22.5625 36.84375 -20.492188 37.40625 -17.734375 L 40.359375 -3.203125 L 40.53125 -2.203125 C 40.53125 -1.460938 40.066406 -0.894531 39.140625 -0.5 C 38.210938 -0.113281 36.847656 0.078125 35.046875 0.078125 L 32.09375 0.078125 C 29.101562 0.078125 27.492188 -0.679688 27.265625 -2.203125 L 24.484375 -18.234375 C 24.203125 -20.484375 22.992188 -21.609375 20.859375 -21.609375 L 17.984375 -21.609375 L 15.953125 -2.53125 C 15.785156 -0.726562 14.015625 0.171875 10.640625 0.171875 Z M 23.734375 -33.859375 C 25.472656 -33.804688 26.832031 -34.550781 27.8125 -36.09375 C 28.800781 -37.644531 29.296875 -39.429688 29.296875 -41.453125 C 29.296875 -43.765625 28.800781 -45.441406 27.8125 -46.484375 C 26.832031 -47.523438 25.382812 -48.046875 23.46875 -48.046875 L 20.765625 -48.046875 L 19.34375 -33.9375 Z M 23.734375 -33.859375 "/></g></g><g style="fill:#db1100;fill-opacity:1;"><g transform="translate(268.939051, 101.796758)"><path style="stroke:none" d="M 5.65625 0 C 4.53125 0 3.753906 -0.265625 3.328125 -0.796875 C 2.910156 -1.335938 2.757812 -2.195312 2.875 -3.375 L 8.4375 -55.734375 C 8.550781 -56.910156 8.890625 -57.765625 9.453125 -58.296875 C 10.015625 -58.835938 10.832031 -59.109375 11.90625 -59.109375 L 36.8125 -59.109375 C 38.21875 -59.109375 38.921875 -58.09375 38.921875 -56.0625 L 38.84375 -54.890625 L 38.59375 -52.265625 C 38.363281 -49.453125 37.375 -48.046875 35.625 -48.046875 L 20.765625 -48.046875 L 19.5 -35.796875 L 32.671875 -35.796875 C 34.078125 -35.796875 34.78125 -34.785156 34.78125 -32.765625 L 34.703125 -31.578125 L 34.453125 -28.96875 C 34.222656 -26.144531 33.238281 -24.734375 31.5 -24.734375 L 18.328125 -24.734375 L 16.890625 -11.0625 L 31.828125 -11.0625 C 32.566406 -11.0625 33.085938 -10.820312 33.390625 -10.34375 C 33.703125 -9.863281 33.859375 -9.117188 33.859375 -8.109375 L 33.78125 -6.84375 L 33.515625 -4.21875 C 33.296875 -1.40625 32.34375 0 30.65625 0 Z M 5.65625 0 "/></g></g><g style="fill:#db1100;fill-opacity:1;"><g transform="translate(306.001522, 101.796758)"><path style="stroke:none" d="M 5.65625 0 C 4.53125 0 3.753906 -0.265625 3.328125 -0.796875 C 2.910156 -1.335938 2.757812 -2.195312 2.875 -3.375 L 8.4375 -55.734375 C 8.550781 -56.910156 8.890625 -57.765625 9.453125 -58.296875 C 10.015625 -58.835938 10.832031 -59.109375 11.90625 -59.109375 L 36.8125 -59.109375 C 38.21875 -59.109375 38.921875 -58.09375 38.921875 -56.0625 L 38.84375 -54.890625 L 38.59375 -52.265625 C 38.363281 -49.453125 37.375 -48.046875 35.625 -48.046875 L 20.765625 -48.046875 L 19.5 -35.796875 L 32.671875 -35.796875 C 34.078125 -35.796875 34.78125 -34.785156 34.78125 -32.765625 L 34.703125 -31.578125 L 34.453125 -28.96875 C 34.222656 -26.144531 33.238281 -24.734375 31.5 -24.734375 L 18.328125 -24.734375 L 16.890625 -11.0625 L 31.828125 -11.0625 C 32.566406 -11.0625 33.085938 -10.820312 33.390625 -10.34375 C 33.703125 -9.863281 33.859375 -9.117188 33.859375 -8.109375 L 33.78125 -6.84375 L 33.515625 -4.21875 C 33.296875 -1.40625 32.34375 0 30.65625 0 Z M 5.65625 0 "/></g></g><g style="fill:#db1100;fill-opacity:1;"><g transform="translate(343.064005, 101.796758)"><path style="stroke:none" d="M 22.296875 0.671875 C 16.378906 0.671875 11.785156 -0.675781 8.515625 -3.375 C 5.253906 -6.082031 3.625 -9.910156 3.625 -14.859375 C 3.625 -15.367188 3.679688 -16.1875 3.796875 -17.3125 L 7.9375 -56.578125 C 8.101562 -58.378906 9.820312 -59.28125 13.09375 -59.28125 L 16.46875 -59.28125 C 19.726562 -59.28125 21.273438 -58.378906 21.109375 -56.578125 L 17.0625 -18.15625 C 17 -17.875 16.96875 -17.476562 16.96875 -16.96875 C 16.96875 -15 17.546875 -13.410156 18.703125 -12.203125 C 19.859375 -10.992188 21.421875 -10.390625 23.390625 -10.390625 C 25.691406 -10.390625 27.53125 -11.035156 28.90625 -12.328125 C 30.289062 -13.617188 31.125 -15.5625 31.40625 -18.15625 L 35.46875 -56.578125 C 35.632812 -58.378906 37.347656 -59.28125 40.609375 -59.28125 L 43.90625 -59.28125 C 47.175781 -59.28125 48.722656 -58.378906 48.546875 -56.578125 L 44.421875 -17.3125 C 43.847656 -11.625 41.59375 -7.203125 37.65625 -4.046875 C 33.71875 -0.898438 28.597656 0.671875 22.296875 0.671875 Z M 22.296875 0.671875 "/></g></g><g style="fill:#db1100;fill-opacity:1;"><g transform="translate(390.764055, 101.796758)"><path style="stroke:none" d="M 7.015625 0.25 C 3.742188 0.25 2.191406 -0.675781 2.359375 -2.53125 L 8.109375 -56.578125 C 8.273438 -58.429688 9.988281 -59.359375 13.25 -59.359375 L 16.796875 -59.359375 C 20.003906 -59.359375 21.523438 -58.429688 21.359375 -56.578125 L 15.625 -2.53125 C 15.457031 -0.675781 13.769531 0.25 10.5625 0.25 Z M 7.015625 0.25 "/></g></g><g style="fill:#db1100;fill-opacity:1;"><g transform="translate(411.363589, 101.796758)"><path style="stroke:none" d="M 5.65625 0 C 4.53125 0 3.753906 -0.265625 3.328125 -0.796875 C 2.910156 -1.335938 2.757812 -2.195312 2.875 -3.375 L 8.53125 -56.578125 C 8.695312 -58.378906 10.410156 -59.28125 13.671875 -59.28125 L 17.0625 -59.28125 C 20.320312 -59.28125 21.867188 -58.378906 21.703125 -56.578125 L 16.890625 -11.0625 L 29.46875 -11.0625 C 30.257812 -11.0625 30.820312 -10.820312 31.15625 -10.34375 C 31.5 -9.863281 31.671875 -9.085938 31.671875 -8.015625 L 31.578125 -6.84375 L 31.234375 -4.21875 C 31.128906 -2.757812 30.835938 -1.691406 30.359375 -1.015625 C 29.878906 -0.335938 29.1875 0 28.28125 0 Z M 5.65625 0 "/></g></g><g style="fill:#db1100;fill-opacity:1;"><g transform="translate(444.289211, 101.796758)"><path style="stroke:none" d="M 1.9375 0.171875 C -0.644531 0.171875 -1.9375 -0.445312 -1.9375 -1.6875 C -1.9375 -1.851562 -1.851562 -2.160156 -1.6875 -2.609375 C -1.519531 -3.066406 -1.378906 -3.492188 -1.265625 -3.890625 L 17.390625 -56.90625 C 17.953125 -58.488281 19.753906 -59.28125 22.796875 -59.28125 L 27.53125 -59.28125 C 30.625 -59.28125 32.285156 -58.488281 32.515625 -56.90625 L 40.359375 -3.203125 C 40.421875 -3.035156 40.453125 -2.753906 40.453125 -2.359375 C 40.453125 -2.078125 40.421875 -1.851562 40.359375 -1.6875 C 40.242188 -0.445312 38.976562 0.171875 36.5625 0.171875 L 32.421875 0.171875 C 29.773438 0.171875 28.34375 -0.421875 28.125 -1.609375 L 27.015625 -11.90625 L 13.84375 -11.90625 L 10.46875 -1.609375 C 10.1875 -0.421875 8.804688 0.171875 6.328125 0.171875 Z M 26.34375 -22.203125 L 24.578125 -40.109375 C 24.347656 -42.921875 24.234375 -45.0625 24.234375 -46.53125 L 23.8125 -46.53125 C 23.082031 -43.488281 22.519531 -41.347656 22.125 -40.109375 L 16.375 -22.203125 Z M 26.34375 -22.203125 "/></g></g><g style="fill:#db1100;fill-opacity:1;"><g transform="translate(485.404095, 101.796758)"><path style="stroke:none" d="M 14.359375 0.671875 C 11.316406 0.671875 8.5 0.222656 5.90625 -0.671875 C 4.382812 -1.234375 3.078125 -1.9375 1.984375 -2.78125 C 0.890625 -3.625 0.34375 -4.554688 0.34375 -5.578125 C 0.28125 -7.203125 0.671875 -8.972656 1.515625 -10.890625 C 2.359375 -12.804688 3.34375 -13.765625 4.46875 -13.765625 C 4.925781 -13.765625 5.601562 -13.523438 6.5 -13.046875 C 7.40625 -12.566406 8.109375 -12.1875 8.609375 -11.90625 C 10.753906 -10.894531 12.8125 -10.390625 14.78125 -10.390625 C 16.632812 -10.390625 18.234375 -10.878906 19.578125 -11.859375 C 20.929688 -12.847656 21.609375 -14.382812 21.609375 -16.46875 C 21.609375 -18.269531 21.0625 -19.757812 19.96875 -20.9375 C 18.875 -22.125 17.171875 -23.476562 14.859375 -25 C 12.660156 -26.457031 10.859375 -27.804688 9.453125 -29.046875 C 8.046875 -30.285156 6.847656 -31.945312 5.859375 -34.03125 C 4.878906 -36.113281 4.390625 -38.617188 4.390625 -41.546875 C 4.390625 -45.148438 5.21875 -48.34375 6.875 -51.125 C 8.539062 -53.914062 10.804688 -56.054688 13.671875 -57.546875 C 16.546875 -59.035156 19.757812 -59.78125 23.3125 -59.78125 C 25.101562 -59.78125 26.96875 -59.566406 28.90625 -59.140625 C 30.851562 -58.722656 32.445312 -58.148438 33.6875 -57.421875 C 35.039062 -56.628906 35.71875 -55.644531 35.71875 -54.46875 C 35.71875 -52.945312 35.347656 -51.296875 34.609375 -49.515625 C 33.878906 -47.742188 32.984375 -46.859375 31.921875 -46.859375 C 31.410156 -46.859375 30.566406 -47.054688 29.390625 -47.453125 C 27.242188 -48.242188 25.46875 -48.640625 24.0625 -48.640625 C 21.414062 -48.640625 19.671875 -48.019531 18.828125 -46.78125 C 17.984375 -45.539062 17.5625 -44.242188 17.5625 -42.890625 C 17.5625 -41.085938 18.066406 -39.640625 19.078125 -38.546875 C 20.097656 -37.453125 21.253906 -36.492188 22.546875 -35.671875 C 23.835938 -34.859375 24.679688 -34.3125 25.078125 -34.03125 C 28.398438 -31.882812 30.847656 -29.644531 32.421875 -27.3125 C 33.992188 -24.976562 34.78125 -22.066406 34.78125 -18.578125 C 34.78125 -12.609375 32.953125 -7.90625 29.296875 -4.46875 C 25.640625 -1.039062 20.660156 0.671875 14.359375 0.671875 Z M 14.359375 0.671875 "/></g></g><g style="fill:#db1100;fill-opacity:1;"><g transform="translate(520.778058, 101.796758)"><path style="stroke:none" d="M 4.21875 0.171875 C 2.53125 0.171875 1.320312 -0.0507812 0.59375 -0.5 C -0.132812 -0.957031 -0.445312 -1.632812 -0.34375 -2.53125 L 0.421875 -10.296875 C 0.585938 -12.097656 2.332031 -13 5.65625 -13 L 8.4375 -13 C 10.132812 -13 11.347656 -12.773438 12.078125 -12.328125 C 12.804688 -11.878906 13.113281 -11.203125 13 -10.296875 L 12.25 -2.53125 C 12.070312 -0.726562 10.328125 0.171875 7.015625 0.171875 Z M 4.21875 0.171875 "/></g></g><g style="fill:#db1100;fill-opacity:1;"><g transform="translate(535.130123, 101.796758)"><path style="stroke:none" d="M 23.390625 0.671875 C 16.523438 0.671875 11.5 -1.15625 8.3125 -4.8125 C 5.132812 -8.46875 3.546875 -14.125 3.546875 -21.78125 C 3.546875 -34.113281 5.8125 -43.53125 10.34375 -50.03125 C 14.875 -56.53125 21.472656 -59.78125 30.140625 -59.78125 C 32.734375 -59.78125 35.15625 -59.472656 37.40625 -58.859375 C 38.925781 -58.398438 39.6875 -57.382812 39.6875 -55.8125 C 39.6875 -55.414062 39.65625 -55.132812 39.59375 -54.96875 C 39.257812 -52.769531 38.640625 -50.894531 37.734375 -49.34375 C 36.835938 -47.800781 35.851562 -47.195312 34.78125 -47.53125 C 33.09375 -48.09375 31.347656 -48.375 29.546875 -48.375 C 25.722656 -48.375 22.695312 -46.164062 20.46875 -41.75 C 18.25 -37.332031 17.140625 -31.328125 17.140625 -23.734375 C 17.140625 -19.453125 17.859375 -16.226562 19.296875 -14.0625 C 20.734375 -11.894531 22.96875 -10.8125 26 -10.8125 C 27.632812 -10.8125 29.523438 -11.117188 31.671875 -11.734375 C 31.835938 -11.796875 32.117188 -11.828125 32.515625 -11.828125 C 33.359375 -11.828125 34.003906 -11.359375 34.453125 -10.421875 C 34.898438 -9.492188 35.125 -8.1875 35.125 -6.5 C 35.125 -4.582031 34.910156 -3.21875 34.484375 -2.40625 C 34.066406 -1.59375 33.296875 -0.988281 32.171875 -0.59375 C 31.160156 -0.25 29.863281 0.046875 28.28125 0.296875 C 26.707031 0.546875 25.078125 0.671875 23.390625 0.671875 Z M 23.390625 0.671875 "/></g></g><g style="fill:#db1100;fill-opacity:1;"><g transform="translate(572.36142, 101.796758)"><path style="stroke:none" d="M 22.625 0.671875 C 9.90625 0.671875 3.546875 -7.515625 3.546875 -23.890625 C 3.546875 -30.703125 4.472656 -36.8125 6.328125 -42.21875 C 8.191406 -47.625 11.078125 -51.898438 14.984375 -55.046875 C 18.898438 -58.203125 23.785156 -59.78125 29.640625 -59.78125 C 42.359375 -59.78125 48.71875 -51.617188 48.71875 -35.296875 C 48.71875 -28.484375 47.785156 -22.359375 45.921875 -16.921875 C 44.066406 -11.492188 41.179688 -7.203125 37.265625 -4.046875 C 33.359375 -0.898438 28.476562 0.671875 22.625 0.671875 Z M 24.0625 -10.390625 C 28.0625 -10.390625 30.960938 -12.847656 32.765625 -17.765625 C 34.566406 -22.691406 35.46875 -28.5625 35.46875 -35.375 C 35.46875 -40.101562 34.890625 -43.492188 33.734375 -45.546875 C 32.578125 -47.609375 30.816406 -48.640625 28.453125 -48.640625 C 24.398438 -48.640625 21.457031 -46.203125 19.625 -41.328125 C 17.800781 -36.460938 16.890625 -30.648438 16.890625 -23.890625 C 16.890625 -19.054688 17.476562 -15.597656 18.65625 -13.515625 C 19.84375 -11.429688 21.644531 -10.390625 24.0625 -10.390625 Z M 24.0625 -10.390625 "/></g></g><g style="fill:#db1100;fill-opacity:1;"><g transform="translate(621.412305, 101.796758)"><path style="stroke:none" d="M 7.015625 0.171875 C 5.316406 0.171875 4.101562 -0.0351562 3.375 -0.453125 C 2.644531 -0.878906 2.335938 -1.570312 2.453125 -2.53125 L 8.109375 -56.578125 C 8.222656 -57.535156 8.671875 -58.222656 9.453125 -58.640625 C 10.242188 -59.066406 11.507812 -59.28125 13.25 -59.28125 L 15.703125 -59.28125 C 17.054688 -59.28125 18.097656 -59.09375 18.828125 -58.71875 C 19.554688 -58.351562 20.117188 -57.75 20.515625 -56.90625 L 28.96875 -37.0625 C 29.25 -36.332031 29.640625 -34.984375 30.140625 -33.015625 C 30.585938 -34.421875 31.238281 -35.769531 32.09375 -37.0625 L 44.578125 -56.90625 C 45.140625 -57.75 45.828125 -58.351562 46.640625 -58.71875 C 47.460938 -59.09375 48.550781 -59.28125 49.90625 -59.28125 L 52.6875 -59.28125 C 54.4375 -59.28125 55.675781 -59.066406 56.40625 -58.640625 C 57.132812 -58.222656 57.441406 -57.535156 57.328125 -56.578125 L 51.671875 -2.53125 C 51.554688 -1.570312 51.09375 -0.878906 50.28125 -0.453125 C 49.46875 -0.0351562 48.1875 0.171875 46.4375 0.171875 L 43.5625 0.171875 C 41.875 0.171875 40.664062 -0.0351562 39.9375 -0.453125 C 39.207031 -0.878906 38.898438 -1.570312 39.015625 -2.53125 L 42.046875 -31.75 C 42.210938 -33.101562 42.578125 -34.648438 43.140625 -36.390625 L 42.8125 -36.484375 C 42.082031 -35.015625 41.320312 -33.691406 40.53125 -32.515625 L 33.015625 -20.859375 C 32.503906 -20.128906 31.992188 -19.609375 31.484375 -19.296875 C 30.984375 -18.984375 30.3125 -18.828125 29.46875 -18.828125 L 28.03125 -18.828125 C 27.132812 -18.828125 26.445312 -18.984375 25.96875 -19.296875 C 25.488281 -19.609375 25.109375 -20.128906 24.828125 -20.859375 L 19.84375 -32.515625 C 19.507812 -33.359375 19.054688 -34.679688 18.484375 -36.484375 L 18.15625 -36.390625 C 18.207031 -35.828125 18.234375 -34.925781 18.234375 -33.6875 C 18.234375 -32.84375 18.207031 -32.195312 18.15625 -31.75 L 15.109375 -2.53125 C 15.003906 -1.570312 14.539062 -0.878906 13.71875 -0.453125 C 12.90625 -0.0351562 11.625 0.171875 9.875 0.171875 Z M 7.015625 0.171875 "/></g></g><path style="fill:none;stroke-width:17;stroke-linecap:butt;stroke-linejoin:miter;stroke:#db1100;stroke-opacity:1;stroke-miterlimit:4;" d="M -0.00125384 8.500608 L 724.043133 8.500608 " transform="matrix(0.749166,0,0,0.749166,141.844689,18.838662)"/></g></svg>