<?xml version="1.0" encoding="UTF-8" standalone="no"?>
<!-- Created with Inkscape (http://www.inkscape.org/) -->

<svg
   width="1730.4989mm"
   height="1908.4005mm"
   viewBox="0 0 1730.4989 1908.4006"
   version="1.1"
   id="svg1"
   xml:space="preserve"
   sodipodi:docname="three-uilas-logo.svg"
   inkscape:version="1.4.2 (ebf0e940, 2025-05-08)"
   inkscape:export-filename="logo.png"
   inkscape:export-xdpi="96"
   inkscape:export-ydpi="96"
   inkscape:export-batch-path="/Users/kailanichu/Downloads"
   inkscape:export-batch-name="three-uilas-favicon"
   xmlns:inkscape="http://www.inkscape.org/namespaces/inkscape"
   xmlns:sodipodi="http://sodipodi.sourceforge.net/DTD/sodipodi-0.dtd"
   xmlns="http://www.w3.org/2000/svg"
   xmlns:svg="http://www.w3.org/2000/svg"><sodipodi:namedview
     id="namedview1"
     pagecolor="#505050"
     bordercolor="#ffffff"
     borderopacity="1"
     inkscape:showpageshadow="0"
     inkscape:pageopacity="0"
     inkscape:pagecheckerboard="1"
     inkscape:deskcolor="#505050"
     inkscape:document-units="mm"
     inkscape:zoom="0.032163729"
     inkscape:cx="12125.46"
     inkscape:cy="5176.6386"
     inkscape:window-width="1512"
     inkscape:window-height="916"
     inkscape:window-x="0"
     inkscape:window-y="38"
     inkscape:window-maximized="1"
     inkscape:current-layer="layer1"
     inkscape:export-bgcolor="#00000000"
     showgrid="false"><inkscape:grid
       id="grid3"
       units="mm"
       originx="-10811.575"
       originy="-2264.2041"
       spacingx="0.99999995"
       spacingy="0.99999995"
       empcolor="#0099e5"
       empopacity="0.30196078"
       color="#0099e5"
       opacity="0.14901961"
       empspacing="5"
       enabled="true"
       visible="false" /><inkscape:page
       x="3.2086141e-12"
       y="-8.4391947e-12"
       width="1730.4989"
       height="1908.4006"
       id="page4"
       margin="0"
       bleed="0" /></sodipodi:namedview><defs
     id="defs1" /><g
     inkscape:label="Layer 1"
     inkscape:groupmode="layer"
     id="layer1"
     transform="translate(-10811.576,-2264.204)"><g
       id="g11"
       transform="translate(-20.762812,2.5285682)"><path
         fill-rule="evenodd"
         clip-rule="evenodd"
         d="m 11039.258,2628.0681 c -68.61,148.2317 -112.185,356.0149 -112.185,587.8081 0,231.7966 43.575,439.5789 112.185,587.8089 70.47,152.2452 158.742,225.5126 240.051,225.5126 81.307,0 169.58,-73.2674 240.049,-225.5126 68.612,-148.23 112.189,-356.0123 112.189,-587.8089 0,-231.7932 -43.577,-439.5764 -112.189,-587.8081 -70.469,-152.2486 -158.742,-225.5135 -240.049,-225.5135 -81.309,0 -169.581,73.2649 -240.051,225.5135 z m 107.962,587.8081 c 0,283.695 59.138,513.6767 132.089,513.6767 67.358,0 122.941,-196.0789 131.066,-449.4672 h -87.037 c -36.477,0 -66.045,-28.7486 -66.045,-64.2095 0,-35.4608 29.568,-64.2096 66.045,-64.2096 h 87.037 c -8.125,-253.3907 -63.708,-449.4672 -131.066,-449.4672 -72.951,0 -132.089,229.9809 -132.089,513.6768 z"
         fill="#1c274c"
         id="path2-2"
         style="fill:#db1100;fill-opacity:1;stroke:none;stroke-width:85.6128;stroke-opacity:1" /><path
         id="path1-73"
         style="fill:#db1100;fill-opacity:1;stroke-width:85.6128"
         d="m 11411.397,2359.7484 c 74.179,48.069 141.728,132.647 188.267,233.1872 74.809,161.6266 119.935,381.9084 119.935,622.941 0,241.0342 -45.126,461.3159 -119.935,622.9443 -46.539,100.5352 -114.088,185.1112 -188.267,233.1827 h 660.438 c 218.851,0 396.268,-383.3047 396.268,-856.127 0,-472.8267 -177.417,-856.1282 -396.268,-856.1282 z m 575.364,387.0515 h 0.08 164.864 0.08 c 31.182,0.093 56.74,25.6516 56.833,56.8338 v 0.08 25.5193 h 25.518 0.08 c 53.916,0.1607 97.887,44.1323 98.051,98.0496 v 0.08 659.4589 0.084 c -0.161,53.9172 -44.133,97.8887 -98.05,98.0494 h -0.08 -329.73 -0.08 c -53.917,-0.1607 -97.887,-44.1322 -98.05,-98.0494 v -0.084 -659.4589 -0.08 c 0.161,-53.9173 44.133,-97.8886 98.05,-98.0496 h 0.08 25.518 v -25.5193 -0.08 c 0.1,-31.1822 25.652,-56.7407 56.834,-56.8338 z m 15.776,72.6114 v 82.4333 h -98.129 c -14.282,0 -25.519,11.2359 -25.519,25.5181 v 659.4589 c 0,14.2824 11.237,25.5193 25.519,25.5193 h 329.729 c 14.282,0 25.52,-11.2369 25.52,-25.5193 v -659.4589 c 0,-14.2822 -11.238,-25.5181 -25.52,-25.5181 h -98.13 v -82.4333 z m -10.384,232.5665 205.921,220.8117 h -79.937 l 54.74,174.0424 -26.484,15.3759 -205.921,-220.8129 h 79.938 l -54.741,-174.0425 z" /></g></g></svg>
