<?xml version="1.0" encoding="UTF-8" standalone="no"?>
<!-- Created with Inkscape (http://www.inkscape.org/) -->

<svg
   width="2500mm"
   height="2500mm"
   viewBox="0 0 2500 2500"
   version="1.1"
   id="svg1"
   xml:space="preserve"
   sodipodi:docname="three-uilas-logo.svg"
   inkscape:version="1.4.2 (ebf0e940, 2025-05-08)"
   inkscape:export-filename="logo.png"
   inkscape:export-xdpi="96"
   inkscape:export-ydpi="96"
   inkscape:export-batch-path="/Users/kailanichu/Downloads"
   inkscape:export-batch-name="three-uilas-logo"
   xmlns:inkscape="http://www.inkscape.org/namespaces/inkscape"
   xmlns:sodipodi="http://sodipodi.sourceforge.net/DTD/sodipodi-0.dtd"
   xmlns="http://www.w3.org/2000/svg"
   xmlns:svg="http://www.w3.org/2000/svg"><sodipodi:namedview
     id="namedview1"
     pagecolor="#505050"
     bordercolor="#ffffff"
     borderopacity="1"
     inkscape:showpageshadow="0"
     inkscape:pageopacity="0"
     inkscape:pagecheckerboard="1"
     inkscape:deskcolor="#505050"
     inkscape:document-units="mm"
     inkscape:zoom="0.032163729"
     inkscape:cx="12125.46"
     inkscape:cy="5176.6386"
     inkscape:window-width="1512"
     inkscape:window-height="916"
     inkscape:window-x="0"
     inkscape:window-y="38"
     inkscape:window-maximized="1"
     inkscape:current-layer="layer1"
     inkscape:export-bgcolor="#00000000"><inkscape:page
       x="0"
       y="0"
       width="2500"
       height="2500"
       id="page13"
       margin="0"
       bleed="0"
       inkscape:export-filename="three.png"
       inkscape:export-xdpi="96"
       inkscape:export-ydpi="96" /></sodipodi:namedview><defs
     id="defs1" /><g
     inkscape:label="Layer 1"
     inkscape:groupmode="layer"
     id="layer1"
     transform="translate(-2510.0001)"><path
       fill-rule="evenodd"
       clip-rule="evenodd"
       d="m 2829.6859,884.27475 c -42.6882,92.22756 -69.8,221.50715 -69.8,365.72545 0,144.2204 27.1118,273.4994 69.8,365.7259 43.8451,94.7247 98.7671,140.3106 149.3559,140.3106 50.5882,0 105.5102,-45.5859 149.3553,-140.3106 42.6887,-92.2265 69.8016,-221.5055 69.8016,-365.7259 0,-144.2183 -27.1129,-273.49789 -69.8016,-365.72545 C 3084.552,789.5479 3029.63,743.9636 2979.0418,743.9636 c -50.5888,0 -105.5108,45.5843 -149.3559,140.31115 z m 67.1723,365.72545 c 0,176.5108 36.7947,319.602 82.1836,319.602 41.9094,0 76.4919,-121.9974 81.5475,-279.6518 h -54.1534 c -22.6944,0 -41.0917,-17.887 -41.0917,-39.9502 0,-22.0632 18.3973,-39.9503 41.0917,-39.9503 h 54.1534 c -5.0556,-157.6559 -39.6381,-279.65178 -81.5475,-279.65178 -45.3889,0 -82.1836,143.09068 -82.1836,319.60208 z"
       fill="#1c274c"
       id="path2"
       style="fill:#db1100;fill-opacity:1;stroke:none;stroke-width:53.267;stroke-opacity:1" /><path
       id="path1"
       style="fill:#db1100;fill-opacity:1;stroke-width:53.267"
       d="m 3061.2249,717.33021 c 46.1537,29.90783 88.1812,82.53099 117.1372,145.08563 46.5447,100.56171 74.6217,237.61766 74.6217,387.58456 0,149.9679 -28.077,287.0239 -74.6217,387.5867 -28.956,62.5515 -70.9835,115.1734 -117.1372,145.0828 h 410.9153 c 136.1664,0 246.552,-238.4865 246.552,-532.6695 0,-294.18572 -110.3856,-532.67019 -246.552,-532.67019 z m 357.9829,240.81768 h 0.05 102.5763 0.051 c 19.4012,0.0579 35.3026,15.95998 35.3606,35.36112 v 0.0499 15.87769 h 15.8771 0.05 c 33.5465,0.1 60.9047,27.4585 61.0061,61.005 v 0.05 410.3055 0.052 c -0.1002,33.5465 -27.4584,60.9049 -61.0049,61.0049 h -0.052 -205.1527 -0.05 c -33.5465,-0.1 -60.9046,-27.4584 -61.0049,-61.0049 v -0.052 -410.3055 -0.05 c 0.1002,-33.5465 27.4584,-60.9048 61.0049,-61.005 h 0.05 15.8772 v -15.87769 -0.0499 c 0.058,-19.40114 15.9599,-35.30317 35.3611,-35.36112 z m 9.8165,45.17771 v 51.2888 h -61.0548 c -8.8864,0 -15.8771,6.9908 -15.8771,15.877 v 410.3055 c 0,8.8863 6.9907,15.8777 15.8771,15.8777 h 205.1527 c 8.8863,0 15.8777,-6.9914 15.8777,-15.8777 v -410.3055 c 0,-8.8862 -6.9914,-15.877 -15.8777,-15.877 h -61.0548 v -51.2888 z m -6.4608,144.6994 128.1204,137.3858 h -49.7354 l 34.0584,108.2866 -16.4781,9.5666 -128.1204,-137.3865 h 49.7353 l -34.0583,-108.2866 z" /><path
       id="path11"
       style="fill:#db1100;fill-opacity:1;stroke-width:53.267"
       d="m 3581.9358,717.33021 c 46.1537,29.90783 88.1812,82.53099 117.1372,145.08563 46.5447,100.56171 74.6218,237.61766 74.6218,387.58456 0,149.9679 -28.0771,287.0239 -74.6218,387.5867 -28.956,62.5515 -70.9835,115.1734 -117.1372,145.0828 h 410.9152 c 136.1665,0 246.5521,-238.4865 246.5521,-532.6695 0,-294.18572 -110.3856,-532.67019 -246.5521,-532.67019 z m 357.9829,240.81768 h 0.05 102.5763 0.05 c 19.4012,0.0579 35.3027,15.95998 35.3607,35.36112 v 0.0499 15.87769 h 15.8771 0.051 c 33.5465,0.1 60.9047,27.4585 61.006,61.005 v 0.05 410.3055 0.052 c -0.1,33.5465 -27.4584,60.9049 -61.0049,61.0049 h -0.052 -205.1527 -0.05 c -33.5465,-0.1 -60.9047,-27.4584 -61.0049,-61.0049 v -0.052 -410.3055 -0.05 c 0.1,-33.5465 27.4584,-60.9048 61.0049,-61.005 h 0.05 15.8771 v -15.87769 -0.0499 c 0.058,-19.40114 15.96,-35.30317 35.3611,-35.36112 z m 9.8166,45.17771 v 51.2888 h -61.0549 c -8.8863,0 -15.8771,6.9908 -15.8771,15.877 v 410.3055 c 0,8.8863 6.9908,15.8777 15.8771,15.8777 h 205.1527 c 8.8863,0 15.8777,-6.9914 15.8777,-15.8777 v -410.3055 c 0,-8.8862 -6.9914,-15.877 -15.8777,-15.877 h -61.0549 v -51.2888 z m -6.4609,144.6994 128.1204,137.3858 h -49.7354 l 34.0583,108.2866 -16.478,9.5666 -128.1204,-137.3865 h 49.7353 l -34.0583,-108.2866 z" /><path
       id="path12"
       style="fill:#db1100;fill-opacity:1;stroke-width:53.267"
       d="m 4102.6472,717.33021 c 46.1536,29.90783 88.1812,82.53099 117.1371,145.08563 46.5448,100.56171 74.6219,237.61766 74.6219,387.58456 0,149.9679 -28.0771,287.0239 -74.6219,387.5867 -28.9559,62.5515 -70.9835,115.1734 -117.1371,145.0828 h 410.9152 c 136.1665,0 246.5521,-238.4865 246.5521,-532.6695 0,-294.18572 -110.3856,-532.67019 -246.5521,-532.67019 z m 357.9829,240.81768 h 0.05 102.5763 0.05 c 19.4012,0.0579 35.3027,15.95998 35.3607,35.36112 v 0.0499 15.87769 h 15.8771 0.051 c 33.5465,0.1 60.9047,27.4585 61.006,61.005 v 0.05 410.3055 0.052 c -0.1,33.5465 -27.4584,60.9049 -61.0049,61.0049 h -0.052 -205.1527 -0.05 c -33.5465,-0.1 -60.9047,-27.4584 -61.0049,-61.0049 v -0.052 -410.3055 -0.05 c 0.1,-33.5465 27.4584,-60.9048 61.0049,-61.005 h 0.05 15.8771 v -15.87769 -0.0499 c 0.057,-19.40114 15.96,-35.30317 35.3611,-35.36112 z m 9.8166,45.17771 v 51.2888 h -61.0549 c -8.8863,0 -15.8771,6.9908 -15.8771,15.877 v 410.3055 c 0,8.8863 6.9908,15.8777 15.8771,15.8777 h 205.1527 c 8.8863,0 15.8777,-6.9914 15.8777,-15.8777 v -410.3055 c 0,-8.8862 -6.9914,-15.877 -15.8777,-15.877 h -61.0549 v -51.2888 z m -6.4609,144.6994 128.1204,137.3858 h -49.7354 l 34.0583,108.2866 -16.478,9.5666 -128.1204,-137.3865 h 49.7353 l -34.0583,-108.2866 z" /></g></svg>
